<svg width="1134" height="991" viewBox="0 0 1134 991" fill="none" xmlns="http://www.w3.org/2000/svg">
<path d="M558.001 1.60001C524.668 2.40001 494.134 3.33334 490.134 3.60001L482.801 4.00001L476.534 54.6667C472.934 82.5333 470.134 106 470.134 106.933C470.001 107.733 466.534 109.467 462.401 110.533C426.401 120.533 395.334 133.2 360.934 152.267C353.468 156.4 352.268 156.667 350.268 155.067C349.068 154 342.268 148.4 335.334 142.533C328.401 136.8 321.201 130.667 319.334 129.2C317.468 127.6 306.268 118.133 294.268 108.133C275.068 92 272.268 90.1333 270.134 91.6C268.801 92.5333 258.268 101.733 246.668 112C235.068 122.267 214.401 140.533 200.801 152.533C187.201 164.533 174.668 175.6 172.934 177.333L169.734 180.267L182.401 199.467C210.134 241.867 227.734 269.467 227.734 270.667C227.734 271.333 222.934 279.333 217.201 288.133C207.068 303.467 188.534 336.933 186.801 342.667C186.001 345.2 186.934 345.467 200.534 346.933C236.934 350.8 266.134 362.533 295.334 385.067C300.134 388.667 304.668 392.267 305.601 392.933C306.668 393.867 308.268 392.133 310.801 387.2C328.001 353.067 356.934 318 388.534 292.933C444.134 248.533 517.201 225.867 586.934 231.333C609.468 233.067 621.601 235.067 643.201 240.8C737.468 265.6 815.068 340.933 843.601 435.2C845.601 442.133 847.601 448 848.001 448.4C849.468 450 861.734 440.8 875.868 427.467C910.668 394.667 937.468 383.467 977.601 385.067C1010.53 386.267 1043.07 397.067 1070.27 416.133C1074.8 419.333 1078.67 421.733 1078.93 421.467C1079.33 421.2 1064.53 348.267 1064 347.6C1063.6 347.067 988.934 350.667 971.734 352L962.134 352.8L950.801 330.4C934.534 298.4 922.801 280.4 898.001 249.067L892.401 242.133L906.401 217.733C914.134 204.267 925.334 184.933 931.201 174.667C937.201 164.4 942.001 155.333 941.868 154.667C941.868 153.867 937.468 150 932.268 145.867C926.934 141.733 903.334 123.067 879.601 104.133L836.534 69.8667L832.268 73.2C829.868 75.0667 812.668 90.9333 794.001 108.4L760.134 140.267L749.201 135.067C721.734 122.267 687.334 111.067 655.468 104.667C645.601 102.667 637.334 100.533 637.068 99.8667C636.934 99.2 632.801 76.5333 628.001 49.4667C623.201 22.4 619.201 0.133338 618.934 5.08777e-06C618.801 5.08777e-06 591.334 0.666672 558.001 1.60001Z" fill="#847C5F"/>
<path d="M152.667 376C135.867 379.067 114.801 387.334 102.934 395.6C96.8007 399.734 82.0007 412.667 82.0007 413.867C82.0007 414.4 89.0674 416.8 97.734 419.334C120.134 425.734 158.667 438.534 174.667 444.8C190.801 451.067 199.334 457.734 201.734 465.734C205.201 477.334 202.801 494.267 193.734 521.334C186.801 542.134 180.401 554.134 171.334 563.467C161.734 573.2 156.001 575.2 144.267 572.8C133.334 570.534 82.8007 555.867 56.534 547.467C45.0674 543.734 35.334 540.667 34.8007 540.667C33.2007 540.667 34.134 553.467 36.4007 562C41.4674 581.467 58.8007 603.067 84.934 622.8C112.401 643.467 139.201 656.4 166.667 662.134C178.267 664.667 203.467 664.267 214.001 661.6C236.667 655.6 273.067 631.867 291.467 610.934C304.801 595.734 315.601 586.667 327.334 580.934L337.201 576L577.334 576.267C752.001 576.534 819.601 576.934 825.734 578.134C837.201 580.267 847.067 586.934 860.001 601.334C882.267 626.134 894.801 636.534 913.734 646C949.867 664.134 1003.47 665.467 1035.6 649.2C1043.33 645.334 1055.33 634.534 1059.6 627.6C1061.87 623.867 1062 622.8 1060.53 621.867C1059.47 621.2 1040.53 614.667 1018.27 607.2C992.134 598.534 976.534 592.667 974.001 590.534C964.401 582.4 962.934 556.8 970.934 532C973.601 523.467 982.534 505.6 986.934 499.734C991.734 493.467 1000.4 488.667 1007.07 488.667C1014.67 488.667 1043.33 495.334 1073.73 504.134C1087.87 508.267 1099.87 511.2 1100.27 510.8C1100.67 510.4 1100 505.734 1098.67 500.4C1089.33 461.867 1056.13 431.867 1006.53 417.334C990.801 412.667 966.001 411.334 951.334 414.534C932.667 418.534 914.267 429.2 896.001 446.8C873.201 468.667 860.134 476.667 842.667 479.334C836.267 480.4 815.467 480.667 776.667 480.134C745.467 479.6 658.267 478.667 582.667 478C507.201 477.2 441.734 476.4 437.334 476C432.934 475.6 415.867 475.334 399.334 475.2C382.801 475.2 365.601 474.534 360.934 473.867C344.534 471.6 327.467 459.6 310.667 438.8C289.201 412.134 255.467 388.267 228.401 380.667C205.467 374.134 173.601 372.267 152.667 376ZM557.334 494.134C608.001 494.934 674.934 495.867 706.134 496.4L762.934 497.334L769.334 501.334C779.067 507.334 783.734 514.8 784.401 525.067C785.334 539.867 778.801 550.4 764.934 556.267C759.601 558.534 736.534 558.4 553.334 555.334C513.067 554.667 466.934 554 451.067 553.867C418.134 553.734 412.134 552.8 404.267 546.934C385.867 533.067 389.467 503.867 410.667 494.534C415.734 492.267 438.001 492.267 557.334 494.134Z" fill="white"/>
<path d="M979 791.5V863H1056.31H1133.61V845.608V828.216H1077.57H1021.52V818.554V808.892H1075.63H1129.75V791.5V774.108H1075.63H1021.52V764.446V755.17L1076.79 754.011L1131.68 752.851L1132.84 736.232L1134 720H1056.69H979V791.5Z" fill="white"/>
<path d="M399.775 792.642L400.938 863.671L423.423 864.836L445.52 866V846.205V826.798H485.837C530.419 826.798 530.806 827.186 530.806 852.415V866L552.903 864.836L575 863.671L574.225 840.383C573.449 823.305 571.123 815.542 566.084 810.884C559.106 805.062 559.106 804.674 566.084 796.135C571.511 789.536 573.449 780.609 573.449 762.755C573.449 740.631 572.286 737.137 563.37 730.151C553.678 722.388 547.863 722 475.758 722H399L399.775 792.642ZM528.48 765.472C531.582 770.518 531.582 774.399 528.48 779.057C524.991 784.879 517.238 786.043 484.674 787.208L445.52 788.372V772.458V756.544L484.674 757.709C517.238 758.873 524.991 760.038 528.48 765.472Z" fill="white"/>
<path d="M611.518 788.308C592.601 827.637 577 860.212 577 860.808C577 861.404 588.311 862 602.157 862H627.509L633.944 850.082L640.38 838.164H684.258L728.136 838.363L734.767 850.082L741.397 862H766.749C786.055 862 791.711 861.404 790.931 859.418C790.541 858.226 774.939 825.452 756.413 786.918L722.676 717H684.258H646.035L611.518 788.308ZM698.494 772.815C704.539 785.925 709.61 797.445 709.61 798.637C709.61 799.63 698.884 800.425 684.258 800.425C669.242 800.425 658.906 799.63 658.906 798.438C658.906 797.445 663.781 785.726 669.827 772.616C677.627 756.13 681.918 748.781 684.258 748.781C686.403 748.781 690.888 756.13 698.494 772.815Z" fill="white"/>
<path d="M220.356 788.308C201.528 827.637 186 860.212 186 860.808C186 861.404 197.258 862 211.039 862H236.273L242.678 850.082L249.083 838.164H292.757L336.43 838.363L343.029 850.082L349.629 862H374.862C394.078 862 399.707 861.404 398.931 859.418C398.543 858.226 383.014 825.452 364.575 786.918L330.995 717H292.757H254.712L220.356 788.308ZM306.926 772.815C312.943 785.925 317.99 797.445 317.99 798.637C317.99 799.63 307.314 800.425 292.757 800.425C277.811 800.425 267.523 799.63 267.523 798.438C267.523 797.445 272.376 785.726 278.393 772.616C286.157 756.13 290.427 748.781 292.757 748.781C294.892 748.781 299.356 756.13 306.926 772.815Z" fill="white"/>
<path d="M44.5625 715.523C42.625 716.3 34.1 717.853 25.9625 719.406C5.0375 722.9 0 736.487 0 788.51C0 837.814 3.875 851.402 20.5375 856.837C39.1375 863.437 118.575 866.543 147.25 861.496C180.962 856.061 185.612 849.461 186 809.474V779.581H137.562H89.125V795.11V810.639H116.25C131.362 810.639 143.375 812.192 143.375 813.744C143.375 823.062 131.75 826.168 96.1 826.168C62.775 826.168 56.9625 825.003 49.9875 818.015C43.0125 811.027 41.85 806.368 43.4 784.627C44.5625 768.322 46.8875 758.228 50.7625 755.899C53.475 753.958 74.7875 752.405 97.65 752.405C135.625 752.405 139.112 753.181 141.437 760.169C143.375 766.769 147.25 767.934 165.075 767.934H186V752.793C186 732.605 176.312 721.347 155 717.076C138.337 713.97 52.7 712.806 44.5625 715.523Z" fill="white"/>
<path d="M823.323 718.513C821.396 719.284 812.917 720.827 804.823 722.37C784.01 725.84 779 739.338 779 791.013C779 839.989 782.854 853.486 799.427 858.885C817.927 865.441 896.937 868.526 925.458 863.513C958.99 858.114 963.615 851.558 964 811.837V782.143H915.823H867.646V797.569V812.994H894.625C909.656 812.994 921.604 814.537 921.604 816.079C921.604 825.335 910.042 828.42 874.583 828.42C841.437 828.42 835.656 827.263 828.719 820.321C821.781 813.38 820.625 808.752 822.167 787.157C823.323 770.96 825.635 760.933 829.49 758.619C832.187 756.691 853.385 755.149 876.125 755.149C913.896 755.149 917.365 755.92 919.677 762.861C921.604 769.417 925.458 770.574 943.187 770.574H964V755.534C964 735.481 954.365 724.298 933.167 720.056C916.594 716.971 831.417 715.814 823.323 718.513Z" fill="white"/>
<path d="M800.585 952.989V989.979H840.574H880.562V980.981V971.984H851.571H822.579V966.985V961.987H850.571H878.563V952.989V943.992H850.571H822.579V938.993V934.195L851.171 933.595L879.563 932.995L880.163 924.398L880.762 916H840.774H800.585V952.989Z" fill="#847C5F"/>
<path d="M253 952.989V989.979H292.989H332.977V980.981V971.984H303.985H274.994V966.985V961.987H302.986H330.978V952.989V943.992H302.986H274.994V938.993V934.195L303.585 933.595L331.977 932.995L332.577 924.398L333.177 916H293.188H253V952.989Z" fill="#847C5F"/>
<path d="M517.063 916.761C516.11 917.149 511.918 917.926 507.916 918.702C497.625 920.448 495.147 927.24 495.147 953.244C495.147 977.889 497.053 984.681 505.248 987.398C514.395 990.697 553.462 992.25 567.564 989.727C584.144 987.01 586.431 983.711 586.621 963.723V948.781H562.8H538.979V956.543V964.305H552.319C559.751 964.305 565.658 965.082 565.658 965.858C565.658 970.515 559.941 972.068 542.409 972.068C526.02 972.068 523.161 971.485 519.731 967.992C516.301 964.499 515.729 962.171 516.491 951.304C517.063 943.153 518.206 938.108 520.112 936.943C521.446 935.973 531.928 935.197 543.171 935.197C561.847 935.197 563.562 935.585 564.706 939.078C565.658 942.377 567.564 942.959 576.33 942.959H586.621V935.391C586.621 925.3 581.857 919.672 571.376 917.538C563.181 915.985 521.065 915.403 517.063 916.761Z" fill="#847C5F"/>
<path d="M616.621 952.989V989.979H627.618H638.615V952.989V916H627.618H616.621V952.989Z" fill="#847C5F"/>
<path d="M363.177 952.989V989.979H375.373H387.37L386.77 961.387L386.17 932.795L404.965 958.988C415.162 973.184 424.159 986.18 424.559 987.38C425.359 989.179 431.357 989.979 445.353 989.979H465.147V952.989V916H452.951H440.754L441.554 943.992C441.954 959.388 441.954 971.984 441.954 971.984C441.754 971.984 432.757 959.388 421.96 943.992L402.365 916H382.771H363.177V952.989Z" fill="#847C5F"/>
<path d="M668.615 952.989V989.979H680.811H692.808L692.208 961.387L691.608 932.795L710.403 958.988C720.6 973.184 729.597 986.18 729.997 987.38C730.797 989.179 736.795 989.979 750.791 989.979H770.585V952.989V916H758.389H746.192L746.992 943.992C747.392 959.388 747.392 971.984 747.392 971.984C747.192 971.984 738.195 959.388 727.398 943.992L707.803 916H688.209H668.615V952.989Z" fill="#847C5F"/>
</svg>
